<?xml version="1.0" encoding="UTF-8"?>
<svg width="128" height="128" viewBox="0 0 128 128" fill="none" xmlns="http://www.w3.org/2000/svg">
  <!-- Background Circle -->
  <circle cx="64" cy="64" r="60" fill="#4F46E5"/>
  
  <!-- Brain Icon -->
  <path d="M64 24C45.2 24 30 39.2 30 58C30 76.8 45.2 92 64 92C82.8 92 98 76.8 98 58C98 39.2 82.8 24 64 24ZM64 84C50.7 84 40 73.3 40 60C40 46.7 50.7 36 64 36C77.3 36 88 46.7 88 60C88 73.3 77.3 84 64 84Z" fill="white"/>
  <path d="M64 44C57.4 44 52 49.4 52 56C52 62.6 57.4 68 64 68C70.6 68 76 62.6 76 56C76 49.4 70.6 44 64 44ZM64 60C61.8 60 60 58.2 60 56C60 53.8 61.8 52 64 52C66.2 52 68 53.8 68 56C68 58.2 66.2 60 64 60Z" fill="white"/>
</svg> 